<?xml version="1.0" encoding="UTF-8" standalone="no"?>
<!DOCTYPE svg PUBLIC "-//W3C//DTD SVG 1.1//EN"
 "http://www.w3.org/Graphics/SVG/1.1/DTD/svg11.dtd">
<!-- Generated by graphviz version 5.0.0 (20220707.1540)
 -->
<!-- Title: dependencies Pages: 1 -->
<svg width="1988pt" height="247pt"
 viewBox="0.00 0.00 1988.00 246.80" xmlns="http://www.w3.org/2000/svg" xmlns:xlink="http://www.w3.org/1999/xlink">
<g id="graph0" class="graph" transform="scale(1 1) rotate(0) translate(4 242.8)">
<title>dependencies</title>
<polygon fill="white" stroke="transparent" points="-4,4 -4,-242.8 1984,-242.8 1984,4 -4,4"/>
<text text-anchor="middle" x="990" y="-8.2" font-family="sans-serif" font-size="14.00">dependencies</text>
<g id="clust1" class="cluster">
<title>cluster_AboutUsPageModule</title>
<polygon fill="none" stroke="black" stroke-dasharray="1,5" points="8,-32.8 8,-157.8 340,-157.8 340,-32.8 8,-32.8"/>
</g>
<g id="clust2" class="cluster">
<title>cluster_AboutUsPageModule_declarations</title>
<polygon fill="none" stroke="black" points="222,-40.8 222,-92.8 332,-92.8 332,-40.8 222,-40.8"/>
</g>
<g id="clust4" class="cluster">
<title>cluster_AboutUsPageModule_imports</title>
<polygon fill="none" stroke="black" points="16,-40.8 16,-92.8 214,-92.8 214,-40.8 16,-40.8"/>
</g>
<g id="clust14" class="cluster">
<title>cluster_AppModule</title>
<polygon fill="none" stroke="black" stroke-dasharray="1,5" points="348,-32.8 348,-230.8 948,-230.8 948,-32.8 348,-32.8"/>
</g>
<g id="clust15" class="cluster">
<title>cluster_AppModule_declarations</title>
<polygon fill="none" stroke="black" points="696,-40.8 696,-92.8 940,-92.8 940,-40.8 696,-40.8"/>
</g>
<g id="clust18" class="cluster">
<title>cluster_AppModule_imports</title>
<polygon fill="none" stroke="black" points="544,-40.8 544,-92.8 688,-92.8 688,-40.8 544,-40.8"/>
</g>
<g id="clust20" class="cluster">
<title>cluster_AppModule_bootstrap</title>
<polygon fill="none" stroke="black" points="624,-170.8 624,-222.8 748,-222.8 748,-170.8 624,-170.8"/>
</g>
<g id="clust21" class="cluster">
<title>cluster_AppModule_providers</title>
<polygon fill="none" stroke="black" points="356,-40.8 356,-92.8 536,-92.8 536,-40.8 356,-40.8"/>
</g>
<g id="clust28" class="cluster">
<title>cluster_HomePageModule</title>
<polygon fill="none" stroke="black" stroke-dasharray="1,5" points="956,-32.8 956,-157.8 1656,-157.8 1656,-32.8 956,-32.8"/>
</g>
<g id="clust29" class="cluster">
<title>cluster_HomePageModule_declarations</title>
<polygon fill="none" stroke="black" points="1154,-40.8 1154,-92.8 1648,-92.8 1648,-40.8 1154,-40.8"/>
</g>
<g id="clust34" class="cluster">
<title>cluster_HomePageModule_imports</title>
<polygon fill="none" stroke="black" points="964,-40.8 964,-92.8 1146,-92.8 1146,-40.8 964,-40.8"/>
</g>
<g id="clust44" class="cluster">
<title>cluster_ProfilePageModule</title>
<polygon fill="none" stroke="black" stroke-dasharray="1,5" points="1664,-32.8 1664,-157.8 1972,-157.8 1972,-32.8 1664,-32.8"/>
</g>
<g id="clust45" class="cluster">
<title>cluster_ProfilePageModule_declarations</title>
<polygon fill="none" stroke="black" points="1866,-40.8 1866,-92.8 1964,-92.8 1964,-40.8 1866,-40.8"/>
</g>
<g id="clust47" class="cluster">
<title>cluster_ProfilePageModule_imports</title>
<polygon fill="none" stroke="black" points="1672,-40.8 1672,-92.8 1858,-92.8 1858,-40.8 1672,-40.8"/>
</g>
<!-- AboutUsPage -->
<g id="node1" class="node">
<title>AboutUsPage</title>
<polygon fill="#ffffb3" stroke="black" points="323.77,-84.8 230.23,-84.8 230.23,-48.8 323.77,-48.8 323.77,-84.8"/>
<text text-anchor="middle" x="277" y="-62.6" font-family="Times,serif" font-size="14.00">AboutUsPage</text>
</g>
<!-- AboutUsPageModule -->
<g id="node2" class="node">
<title>AboutUsPageModule</title>
<polygon fill="#8dd3c7" stroke="black" points="257.82,-149.8 254.82,-153.8 233.82,-153.8 230.82,-149.8 120.18,-149.8 120.18,-113.8 257.82,-113.8 257.82,-149.8"/>
<text text-anchor="middle" x="189" y="-127.6" font-family="Times,serif" font-size="14.00">AboutUsPageModule</text>
</g>
<!-- AboutUsPage&#45;&gt;AboutUsPageModule -->
<g id="edge1" class="edge">
<title>AboutUsPage&#45;&gt;AboutUsPageModule</title>
<path fill="none" stroke="black" d="M243.89,-84.91C243.89,-84.91 243.89,-103.79 243.89,-103.79"/>
<polygon fill="black" stroke="black" points="240.39,-103.79 243.89,-113.79 247.39,-103.79 240.39,-103.79"/>
</g>
<!-- AboutUsPageRoutingModule -->
<g id="node3" class="node">
<title>AboutUsPageRoutingModule</title>
<polygon fill="#8dd3c7" stroke="black" points="206.44,-84.8 203.44,-88.8 182.44,-88.8 179.44,-84.8 23.56,-84.8 23.56,-48.8 206.44,-48.8 206.44,-84.8"/>
<text text-anchor="middle" x="115" y="-62.6" font-family="Times,serif" font-size="14.00">AboutUsPageRoutingModule</text>
</g>
<!-- AboutUsPageRoutingModule&#45;&gt;AboutUsPageModule -->
<g id="edge2" class="edge">
<title>AboutUsPageRoutingModule&#45;&gt;AboutUsPageModule</title>
<path fill="none" stroke="black" d="M163.28,-84.91C163.28,-84.91 163.28,-103.79 163.28,-103.79"/>
<polygon fill="black" stroke="black" points="159.78,-103.79 163.28,-113.79 166.78,-103.79 159.78,-103.79"/>
</g>
<!-- AppComponent -->
<g id="node4" class="node">
<title>AppComponent</title>
<polygon fill="#ffffb3" stroke="black" points="931.94,-84.8 826.06,-84.8 826.06,-48.8 931.94,-48.8 931.94,-84.8"/>
<text text-anchor="middle" x="879" y="-62.6" font-family="Times,serif" font-size="14.00">AppComponent</text>
</g>
<!-- AppModule -->
<g id="node6" class="node">
<title>AppModule</title>
<polygon fill="#8dd3c7" stroke="black" points="727.66,-149.8 724.66,-153.8 703.66,-153.8 700.66,-149.8 644.34,-149.8 644.34,-113.8 727.66,-113.8 727.66,-149.8"/>
<text text-anchor="middle" x="686" y="-127.6" font-family="Times,serif" font-size="14.00">AppModule</text>
</g>
<!-- AppComponent&#45;&gt;AppModule -->
<g id="edge3" class="edge">
<title>AppComponent&#45;&gt;AppModule</title>
<path fill="none" stroke="black" d="M879,-85.08C879,-106.12 879,-137.8 879,-137.8 879,-137.8 737.88,-137.8 737.88,-137.8"/>
<polygon fill="black" stroke="black" points="737.88,-134.3 727.88,-137.8 737.88,-141.3 737.88,-134.3"/>
</g>
<!-- NavComponent -->
<g id="node5" class="node">
<title>NavComponent</title>
<polygon fill="#ffffb3" stroke="black" points="808.16,-84.8 703.84,-84.8 703.84,-48.8 808.16,-48.8 808.16,-84.8"/>
<text text-anchor="middle" x="756" y="-62.6" font-family="Times,serif" font-size="14.00">NavComponent</text>
</g>
<!-- NavComponent&#45;&gt;AppModule -->
<g id="edge4" class="edge">
<title>NavComponent&#45;&gt;AppModule</title>
<path fill="none" stroke="black" d="M715.75,-84.91C715.75,-84.91 715.75,-103.79 715.75,-103.79"/>
<polygon fill="black" stroke="black" points="712.25,-103.79 715.75,-113.79 719.25,-103.79 712.25,-103.79"/>
</g>
<!-- AppComponent  -->
<g id="node8" class="node">
<title>AppComponent </title>
<polygon fill="#80b1d3" stroke="black" points="740.44,-214.8 631.56,-214.8 631.56,-178.8 740.44,-178.8 740.44,-214.8"/>
<text text-anchor="middle" x="686" y="-192.6" font-family="Times,serif" font-size="14.00">AppComponent </text>
</g>
<!-- AppModule&#45;&gt;AppComponent  -->
<g id="edge6" class="edge">
<title>AppModule&#45;&gt;AppComponent </title>
<path fill="none" stroke="black" stroke-dasharray="1,5" d="M686,-149.91C686,-149.91 686,-168.79 686,-168.79"/>
<polygon fill="black" stroke="black" points="682.5,-168.79 686,-178.79 689.5,-168.79 682.5,-168.79"/>
</g>
<!-- AppRoutingModule -->
<g id="node7" class="node">
<title>AppRoutingModule</title>
<polygon fill="#8dd3c7" stroke="black" points="680.28,-84.8 677.28,-88.8 656.28,-88.8 653.28,-84.8 551.72,-84.8 551.72,-48.8 680.28,-48.8 680.28,-84.8"/>
<text text-anchor="middle" x="616" y="-62.6" font-family="Times,serif" font-size="14.00">AppRoutingModule</text>
</g>
<!-- AppRoutingModule&#45;&gt;AppModule -->
<g id="edge5" class="edge">
<title>AppRoutingModule&#45;&gt;AppModule</title>
<path fill="none" stroke="black" d="M662.28,-84.91C662.28,-84.91 662.28,-103.79 662.28,-103.79"/>
<polygon fill="black" stroke="black" points="658.78,-103.79 662.28,-113.79 665.78,-103.79 658.78,-103.79"/>
</g>
<!-- ApiserviceService -->
<g id="node9" class="node">
<title>ApiserviceService</title>
<ellipse fill="#fdb462" stroke="black" cx="446" cy="-66.8" rx="81.65" ry="18"/>
<text text-anchor="middle" x="446" y="-62.6" font-family="Times,serif" font-size="14.00">ApiserviceService</text>
</g>
<!-- ApiserviceService&#45;&gt;AppModule -->
<g id="edge7" class="edge">
<title>ApiserviceService&#45;&gt;AppModule</title>
<path fill="none" stroke="black" d="M446,-84.91C446,-104.14 446,-131.8 446,-131.8 446,-131.8 634.2,-131.8 634.2,-131.8"/>
<polygon fill="black" stroke="black" points="634.2,-135.3 644.2,-131.8 634.2,-128.3 634.2,-135.3"/>
</g>
<!-- CreateComponent -->
<g id="node10" class="node">
<title>CreateComponent</title>
<polygon fill="#ffffb3" stroke="black" points="1639.86,-84.8 1522.14,-84.8 1522.14,-48.8 1639.86,-48.8 1639.86,-84.8"/>
<text text-anchor="middle" x="1581" y="-62.6" font-family="Times,serif" font-size="14.00">CreateComponent</text>
</g>
<!-- HomePageModule -->
<g id="node14" class="node">
<title>HomePageModule</title>
<polygon fill="#8dd3c7" stroke="black" points="1389.48,-149.8 1386.48,-153.8 1365.48,-153.8 1362.48,-149.8 1268.52,-149.8 1268.52,-113.8 1389.48,-113.8 1389.48,-149.8"/>
<text text-anchor="middle" x="1329" y="-127.6" font-family="Times,serif" font-size="14.00">HomePageModule</text>
</g>
<!-- CreateComponent&#45;&gt;HomePageModule -->
<g id="edge8" class="edge">
<title>CreateComponent&#45;&gt;HomePageModule</title>
<path fill="none" stroke="black" d="M1581,-84.91C1581,-104.14 1581,-131.8 1581,-131.8 1581,-131.8 1399.68,-131.8 1399.68,-131.8"/>
<polygon fill="black" stroke="black" points="1399.68,-128.3 1389.68,-131.8 1399.68,-135.3 1399.68,-128.3"/>
</g>
<!-- FooterComponent -->
<g id="node11" class="node">
<title>FooterComponent</title>
<polygon fill="#ffffb3" stroke="black" points="1503.88,-84.8 1386.12,-84.8 1386.12,-48.8 1503.88,-48.8 1503.88,-84.8"/>
<text text-anchor="middle" x="1445" y="-62.6" font-family="Times,serif" font-size="14.00">FooterComponent</text>
</g>
<!-- FooterComponent&#45;&gt;HomePageModule -->
<g id="edge9" class="edge">
<title>FooterComponent&#45;&gt;HomePageModule</title>
<path fill="none" stroke="black" d="M1386.07,-66.8C1380.5,-66.8 1376.89,-66.8 1376.89,-66.8 1376.89,-66.8 1376.89,-103.69 1376.89,-103.69"/>
<polygon fill="black" stroke="black" points="1373.39,-103.69 1376.89,-113.69 1380.39,-103.69 1373.39,-103.69"/>
</g>
<!-- HomePage -->
<g id="node12" class="node">
<title>HomePage</title>
<polygon fill="#ffffb3" stroke="black" points="1367.93,-84.8 1290.07,-84.8 1290.07,-48.8 1367.93,-48.8 1367.93,-84.8"/>
<text text-anchor="middle" x="1329" y="-62.6" font-family="Times,serif" font-size="14.00">HomePage</text>
</g>
<!-- HomePage&#45;&gt;HomePageModule -->
<g id="edge10" class="edge">
<title>HomePage&#45;&gt;HomePageModule</title>
<path fill="none" stroke="black" d="M1329,-84.91C1329,-84.91 1329,-103.79 1329,-103.79"/>
<polygon fill="black" stroke="black" points="1325.5,-103.79 1329,-113.79 1332.5,-103.79 1325.5,-103.79"/>
</g>
<!-- ReadComponent -->
<g id="node13" class="node">
<title>ReadComponent</title>
<polygon fill="#ffffb3" stroke="black" points="1272.1,-84.8 1161.9,-84.8 1161.9,-48.8 1272.1,-48.8 1272.1,-84.8"/>
<text text-anchor="middle" x="1217" y="-62.6" font-family="Times,serif" font-size="14.00">ReadComponent</text>
</g>
<!-- ReadComponent&#45;&gt;HomePageModule -->
<g id="edge11" class="edge">
<title>ReadComponent&#45;&gt;HomePageModule</title>
<path fill="none" stroke="black" d="M1272.25,-66.8C1277.64,-66.8 1281.17,-66.8 1281.17,-66.8 1281.17,-66.8 1281.17,-103.69 1281.17,-103.69"/>
<polygon fill="black" stroke="black" points="1277.67,-103.69 1281.17,-113.69 1284.67,-103.69 1277.67,-103.69"/>
</g>
<!-- HomePageRoutingModule -->
<g id="node15" class="node">
<title>HomePageRoutingModule</title>
<polygon fill="#8dd3c7" stroke="black" points="1138.1,-84.8 1135.1,-88.8 1114.1,-88.8 1111.1,-84.8 971.9,-84.8 971.9,-48.8 1138.1,-48.8 1138.1,-84.8"/>
<text text-anchor="middle" x="1055" y="-62.6" font-family="Times,serif" font-size="14.00">HomePageRoutingModule</text>
</g>
<!-- HomePageRoutingModule&#45;&gt;HomePageModule -->
<g id="edge12" class="edge">
<title>HomePageRoutingModule&#45;&gt;HomePageModule</title>
<path fill="none" stroke="black" d="M1055,-84.82C1055,-102.17 1055,-125.8 1055,-125.8 1055,-125.8 1258.19,-125.8 1258.19,-125.8"/>
<polygon fill="black" stroke="black" points="1258.19,-129.3 1268.19,-125.8 1258.19,-122.3 1258.19,-129.3"/>
</g>
<!-- ProfilePage -->
<g id="node16" class="node">
<title>ProfilePage</title>
<polygon fill="#ffffb3" stroke="black" points="1955.82,-84.8 1874.18,-84.8 1874.18,-48.8 1955.82,-48.8 1955.82,-84.8"/>
<text text-anchor="middle" x="1915" y="-62.6" font-family="Times,serif" font-size="14.00">ProfilePage</text>
</g>
<!-- ProfilePageModule -->
<g id="node17" class="node">
<title>ProfilePageModule</title>
<polygon fill="#8dd3c7" stroke="black" points="1895.37,-149.8 1892.37,-153.8 1871.37,-153.8 1868.37,-149.8 1770.63,-149.8 1770.63,-113.8 1895.37,-113.8 1895.37,-149.8"/>
<text text-anchor="middle" x="1833" y="-127.6" font-family="Times,serif" font-size="14.00">ProfilePageModule</text>
</g>
<!-- ProfilePage&#45;&gt;ProfilePageModule -->
<g id="edge13" class="edge">
<title>ProfilePage&#45;&gt;ProfilePageModule</title>
<path fill="none" stroke="black" d="M1884.89,-84.91C1884.89,-84.91 1884.89,-103.79 1884.89,-103.79"/>
<polygon fill="black" stroke="black" points="1881.39,-103.79 1884.89,-113.79 1888.39,-103.79 1881.39,-103.79"/>
</g>
<!-- ProfilePageRoutingModule -->
<g id="node18" class="node">
<title>ProfilePageRoutingModule</title>
<polygon fill="#8dd3c7" stroke="black" points="1849.99,-84.8 1846.99,-88.8 1825.99,-88.8 1822.99,-84.8 1680.01,-84.8 1680.01,-48.8 1849.99,-48.8 1849.99,-84.8"/>
<text text-anchor="middle" x="1765" y="-62.6" font-family="Times,serif" font-size="14.00">ProfilePageRoutingModule</text>
</g>
<!-- ProfilePageRoutingModule&#45;&gt;ProfilePageModule -->
<g id="edge14" class="edge">
<title>ProfilePageRoutingModule&#45;&gt;ProfilePageModule</title>
<path fill="none" stroke="black" d="M1810.28,-84.91C1810.28,-84.91 1810.28,-103.79 1810.28,-103.79"/>
<polygon fill="black" stroke="black" points="1806.78,-103.79 1810.28,-113.79 1813.78,-103.79 1806.78,-103.79"/>
</g>
</g>
</svg>
