<?xml version="1.0" encoding="UTF-8" standalone="no"?>
<!DOCTYPE svg PUBLIC "-//W3C//DTD SVG 1.1//EN"
 "http://www.w3.org/Graphics/SVG/1.1/DTD/svg11.dtd">
<!-- Generated by graphviz version 5.0.0 (20220707.1540)
 -->
<!-- Title: dependencies Pages: 1 -->
<svg width="724pt" height="174pt"
 viewBox="0.00 0.00 724.00 173.80" xmlns="http://www.w3.org/2000/svg" xmlns:xlink="http://www.w3.org/1999/xlink">
<g id="graph0" class="graph" transform="scale(1 1) rotate(0) translate(4 169.8)">
<title>dependencies</title>
<polygon fill="white" stroke="transparent" points="-4,4 -4,-169.8 720,-169.8 720,4 -4,4"/>
<text text-anchor="middle" x="358" y="-8.2" font-family="sans-serif" font-size="14.00">dependencies</text>
<g id="clust1" class="cluster">
<title>cluster_HomePageModule</title>
<polygon fill="none" stroke="black" stroke-dasharray="1,5" points="8,-32.8 8,-157.8 708,-157.8 708,-32.8 8,-32.8"/>
</g>
<g id="clust7" class="cluster">
<title>cluster_HomePageModule_imports</title>
<polygon fill="none" stroke="black" points="518,-40.8 518,-92.8 700,-92.8 700,-40.8 518,-40.8"/>
</g>
<g id="clust2" class="cluster">
<title>cluster_HomePageModule_declarations</title>
<polygon fill="none" stroke="black" points="16,-40.8 16,-92.8 510,-92.8 510,-40.8 16,-40.8"/>
</g>
<!-- CreateComponent -->
<g id="node1" class="node">
<title>CreateComponent</title>
<polygon fill="#ffffb3" stroke="black" points="501.86,-84.8 384.14,-84.8 384.14,-48.8 501.86,-48.8 501.86,-84.8"/>
<text text-anchor="middle" x="443" y="-62.6" font-family="Times,serif" font-size="14.00">CreateComponent</text>
</g>
<!-- HomePageModule -->
<g id="node5" class="node">
<title>HomePageModule</title>
<polygon fill="#8dd3c7" stroke="black" points="367.48,-149.8 364.48,-153.8 343.48,-153.8 340.48,-149.8 246.52,-149.8 246.52,-113.8 367.48,-113.8 367.48,-149.8"/>
<text text-anchor="middle" x="307" y="-127.6" font-family="Times,serif" font-size="14.00">HomePageModule</text>
</g>
<!-- CreateComponent&#45;&gt;HomePageModule -->
<g id="edge1" class="edge">
<title>CreateComponent&#45;&gt;HomePageModule</title>
<path fill="none" stroke="black" d="M443,-84.82C443,-102.17 443,-125.8 443,-125.8 443,-125.8 377.84,-125.8 377.84,-125.8"/>
<polygon fill="black" stroke="black" points="377.84,-122.3 367.84,-125.8 377.84,-129.3 377.84,-122.3"/>
</g>
<!-- FooterComponent -->
<g id="node2" class="node">
<title>FooterComponent</title>
<polygon fill="#ffffb3" stroke="black" points="365.88,-84.8 248.12,-84.8 248.12,-48.8 365.88,-48.8 365.88,-84.8"/>
<text text-anchor="middle" x="307" y="-62.6" font-family="Times,serif" font-size="14.00">FooterComponent</text>
</g>
<!-- FooterComponent&#45;&gt;HomePageModule -->
<g id="edge2" class="edge">
<title>FooterComponent&#45;&gt;HomePageModule</title>
<path fill="none" stroke="black" d="M307,-84.91C307,-84.91 307,-103.79 307,-103.79"/>
<polygon fill="black" stroke="black" points="303.5,-103.79 307,-113.79 310.5,-103.79 303.5,-103.79"/>
</g>
<!-- HomePage -->
<g id="node3" class="node">
<title>HomePage</title>
<polygon fill="#ffffb3" stroke="black" points="229.93,-84.8 152.07,-84.8 152.07,-48.8 229.93,-48.8 229.93,-84.8"/>
<text text-anchor="middle" x="191" y="-62.6" font-family="Times,serif" font-size="14.00">HomePage</text>
</g>
<!-- HomePage&#45;&gt;HomePageModule -->
<g id="edge3" class="edge">
<title>HomePage&#45;&gt;HomePageModule</title>
<path fill="none" stroke="black" d="M191,-84.82C191,-102.17 191,-125.8 191,-125.8 191,-125.8 236.28,-125.8 236.28,-125.8"/>
<polygon fill="black" stroke="black" points="236.28,-129.3 246.28,-125.8 236.28,-122.3 236.28,-129.3"/>
</g>
<!-- ReadComponent -->
<g id="node4" class="node">
<title>ReadComponent</title>
<polygon fill="#ffffb3" stroke="black" points="134.1,-84.8 23.9,-84.8 23.9,-48.8 134.1,-48.8 134.1,-84.8"/>
<text text-anchor="middle" x="79" y="-62.6" font-family="Times,serif" font-size="14.00">ReadComponent</text>
</g>
<!-- ReadComponent&#45;&gt;HomePageModule -->
<g id="edge4" class="edge">
<title>ReadComponent&#45;&gt;HomePageModule</title>
<path fill="none" stroke="black" d="M79,-85.08C79,-106.12 79,-137.8 79,-137.8 79,-137.8 236.5,-137.8 236.5,-137.8"/>
<polygon fill="black" stroke="black" points="236.5,-141.3 246.5,-137.8 236.5,-134.3 236.5,-141.3"/>
</g>
<!-- HomePageRoutingModule -->
<g id="node6" class="node">
<title>HomePageRoutingModule</title>
<polygon fill="#8dd3c7" stroke="black" points="692.1,-84.8 689.1,-88.8 668.1,-88.8 665.1,-84.8 525.9,-84.8 525.9,-48.8 692.1,-48.8 692.1,-84.8"/>
<text text-anchor="middle" x="609" y="-62.6" font-family="Times,serif" font-size="14.00">HomePageRoutingModule</text>
</g>
<!-- HomePageRoutingModule&#45;&gt;HomePageModule -->
<g id="edge5" class="edge">
<title>HomePageRoutingModule&#45;&gt;HomePageModule</title>
<path fill="none" stroke="black" d="M609,-85.08C609,-106.12 609,-137.8 609,-137.8 609,-137.8 377.75,-137.8 377.75,-137.8"/>
<polygon fill="black" stroke="black" points="377.75,-134.3 367.75,-137.8 377.75,-141.3 377.75,-134.3"/>
</g>
</g>
</svg>
