<?xml version="1.0" encoding="UTF-8" standalone="no"?>
<!DOCTYPE svg PUBLIC "-//W3C//DTD SVG 1.1//EN"
 "http://www.w3.org/Graphics/SVG/1.1/DTD/svg11.dtd">
<!-- Generated by graphviz version 5.0.0 (20220707.1540)
 -->
<!-- Title: dependencies Pages: 1 -->
<svg width="624pt" height="247pt"
 viewBox="0.00 0.00 624.00 246.80" xmlns="http://www.w3.org/2000/svg" xmlns:xlink="http://www.w3.org/1999/xlink">
<g id="graph0" class="graph" transform="scale(1 1) rotate(0) translate(4 242.8)">
<title>dependencies</title>
<polygon fill="white" stroke="transparent" points="-4,4 -4,-242.8 620,-242.8 620,4 -4,4"/>
<text text-anchor="middle" x="308" y="-8.2" font-family="sans-serif" font-size="14.00">dependencies</text>
<g id="clust1" class="cluster">
<title>cluster_AppModule</title>
<polygon fill="none" stroke="black" stroke-dasharray="1,5" points="8,-32.8 8,-230.8 608,-230.8 608,-32.8 8,-32.8"/>
</g>
<g id="clust2" class="cluster">
<title>cluster_AppModule_declarations</title>
<polygon fill="none" stroke="black" points="356,-40.8 356,-92.8 600,-92.8 600,-40.8 356,-40.8"/>
</g>
<g id="clust5" class="cluster">
<title>cluster_AppModule_imports</title>
<polygon fill="none" stroke="black" points="204,-40.8 204,-92.8 348,-92.8 348,-40.8 204,-40.8"/>
</g>
<g id="clust7" class="cluster">
<title>cluster_AppModule_bootstrap</title>
<polygon fill="none" stroke="black" points="284,-170.8 284,-222.8 408,-222.8 408,-170.8 284,-170.8"/>
</g>
<g id="clust8" class="cluster">
<title>cluster_AppModule_providers</title>
<polygon fill="none" stroke="black" points="16,-40.8 16,-92.8 196,-92.8 196,-40.8 16,-40.8"/>
</g>
<!-- AppComponent -->
<g id="node1" class="node">
<title>AppComponent</title>
<polygon fill="#ffffb3" stroke="black" points="591.94,-84.8 486.06,-84.8 486.06,-48.8 591.94,-48.8 591.94,-84.8"/>
<text text-anchor="middle" x="539" y="-62.6" font-family="Times,serif" font-size="14.00">AppComponent</text>
</g>
<!-- AppModule -->
<g id="node3" class="node">
<title>AppModule</title>
<polygon fill="#8dd3c7" stroke="black" points="387.66,-149.8 384.66,-153.8 363.66,-153.8 360.66,-149.8 304.34,-149.8 304.34,-113.8 387.66,-113.8 387.66,-149.8"/>
<text text-anchor="middle" x="346" y="-127.6" font-family="Times,serif" font-size="14.00">AppModule</text>
</g>
<!-- AppComponent&#45;&gt;AppModule -->
<g id="edge1" class="edge">
<title>AppComponent&#45;&gt;AppModule</title>
<path fill="none" stroke="black" d="M539,-84.91C539,-104.14 539,-131.8 539,-131.8 539,-131.8 397.88,-131.8 397.88,-131.8"/>
<polygon fill="black" stroke="black" points="397.88,-128.3 387.88,-131.8 397.88,-135.3 397.88,-128.3"/>
</g>
<!-- NavComponent -->
<g id="node2" class="node">
<title>NavComponent</title>
<polygon fill="#ffffb3" stroke="black" points="468.16,-84.8 363.84,-84.8 363.84,-48.8 468.16,-48.8 468.16,-84.8"/>
<text text-anchor="middle" x="416" y="-62.6" font-family="Times,serif" font-size="14.00">NavComponent</text>
</g>
<!-- NavComponent&#45;&gt;AppModule -->
<g id="edge2" class="edge">
<title>NavComponent&#45;&gt;AppModule</title>
<path fill="none" stroke="black" d="M375.75,-84.91C375.75,-84.91 375.75,-103.79 375.75,-103.79"/>
<polygon fill="black" stroke="black" points="372.25,-103.79 375.75,-113.79 379.25,-103.79 372.25,-103.79"/>
</g>
<!-- AppComponent  -->
<g id="node5" class="node">
<title>AppComponent </title>
<polygon fill="#80b1d3" stroke="black" points="400.44,-214.8 291.56,-214.8 291.56,-178.8 400.44,-178.8 400.44,-214.8"/>
<text text-anchor="middle" x="346" y="-192.6" font-family="Times,serif" font-size="14.00">AppComponent </text>
</g>
<!-- AppModule&#45;&gt;AppComponent  -->
<g id="edge4" class="edge">
<title>AppModule&#45;&gt;AppComponent </title>
<path fill="none" stroke="black" stroke-dasharray="1,5" d="M346,-149.91C346,-149.91 346,-168.79 346,-168.79"/>
<polygon fill="black" stroke="black" points="342.5,-168.79 346,-178.79 349.5,-168.79 342.5,-168.79"/>
</g>
<!-- AppRoutingModule -->
<g id="node4" class="node">
<title>AppRoutingModule</title>
<polygon fill="#8dd3c7" stroke="black" points="340.28,-84.8 337.28,-88.8 316.28,-88.8 313.28,-84.8 211.72,-84.8 211.72,-48.8 340.28,-48.8 340.28,-84.8"/>
<text text-anchor="middle" x="276" y="-62.6" font-family="Times,serif" font-size="14.00">AppRoutingModule</text>
</g>
<!-- AppRoutingModule&#45;&gt;AppModule -->
<g id="edge3" class="edge">
<title>AppRoutingModule&#45;&gt;AppModule</title>
<path fill="none" stroke="black" d="M322.28,-84.91C322.28,-84.91 322.28,-103.79 322.28,-103.79"/>
<polygon fill="black" stroke="black" points="318.78,-103.79 322.28,-113.79 325.78,-103.79 318.78,-103.79"/>
</g>
<!-- ApiserviceService -->
<g id="node6" class="node">
<title>ApiserviceService</title>
<ellipse fill="#fdb462" stroke="black" cx="106" cy="-66.8" rx="81.65" ry="18"/>
<text text-anchor="middle" x="106" y="-62.6" font-family="Times,serif" font-size="14.00">ApiserviceService</text>
</g>
<!-- ApiserviceService&#45;&gt;AppModule -->
<g id="edge5" class="edge">
<title>ApiserviceService&#45;&gt;AppModule</title>
<path fill="none" stroke="black" d="M106,-84.91C106,-104.14 106,-131.8 106,-131.8 106,-131.8 294.2,-131.8 294.2,-131.8"/>
<polygon fill="black" stroke="black" points="294.2,-135.3 304.2,-131.8 294.2,-128.3 294.2,-135.3"/>
</g>
</g>
</svg>
